<?xml version="1.0" standalone="no"?>
<!DOCTYPE svg PUBLIC "-//W3C//DTD SVG 20010904//EN"
 "http://www.w3.org/TR/2001/REC-SVG-20010904/DTD/svg10.dtd">
<svg version="1.0" xmlns="http://www.w3.org/2000/svg"
 width="600.000000pt" height="600.000000pt" viewBox="0 0 600.000000 600.000000"
 preserveAspectRatio="xMidYMid meet">
<metadata>
Created by potrace 1.11, written by Peter Selinger 2001-2013
</metadata>
<g transform="translate(0.000000,600.000000) scale(0.100000,-0.100000)"
fill="#000000" stroke="none">
<path d="M0 3000 l0 -3000 3000 0 3000 0 0 3000 0 3000 -3000 0 -3000 0 0
-3000z m3170 2015 c7 -8 16 -12 21 -9 5 3 9 -5 9 -17 0 -18 2 -19 15 -9 13 10
15 9 16 -11 1 -20 2 -21 6 -5 8 31 31 48 53 41 11 -4 17 -11 14 -17 -5 -7 -1
-9 9 -5 19 7 49 -1 43 -12 -2 -3 14 -6 36 -5 25 0 42 -5 45 -13 3 -8 14 -11
31 -6 17 4 23 2 18 -5 -5 -8 -2 -10 8 -6 9 3 16 11 16 16 0 6 7 7 18 3 9 -5
26 -9 38 -10 34 -2 47 -15 33 -31 -14 -18 -11 -21 23 -28 20 -3 29 0 33 14 7
23 45 15 45 -10 0 -10 7 -23 15 -30 12 -10 15 -10 15 4 0 22 52 17 58 -6 2
-10 8 -15 13 -12 5 3 9 0 9 -5 0 -6 -4 -11 -10 -11 -5 0 -10 -10 -10 -22 0
-19 2 -20 10 -8 5 8 10 10 10 4 0 -21 30 -24 49 -5 25 25 71 17 71 -11 0 -17
-3 -18 -14 -9 -10 9 -16 9 -21 1 -8 -13 22 -50 42 -50 7 0 13 -4 13 -10 0 -5
6 -10 13 -10 7 0 24 -11 38 -24 18 -16 30 -21 40 -15 19 12 39 11 39 -1 0 -5
-8 -10 -17 -11 -12 0 -13 -2 -5 -6 7 -3 20 1 29 8 14 12 15 11 9 -9 -6 -18 -4
-22 13 -22 11 0 28 -11 37 -25 18 -28 34 -33 34 -10 0 8 -7 15 -16 15 -13 0
-14 3 -5 13 13 16 5 27 -21 27 -11 0 -17 4 -14 9 11 17 54 -1 61 -26 4 -19 9
-22 19 -14 11 9 18 8 29 -4 9 -8 19 -15 24 -15 4 0 17 -11 27 -25 10 -13 22
-22 27 -19 5 3 6 -3 2 -12 -4 -12 -3 -15 5 -10 8 5 12 0 12 -14 0 -16 4 -20
16 -16 8 3 12 2 9 -4 -3 -6 -15 -10 -26 -10 -12 0 -17 -4 -14 -11 4 -6 13 -8
21 -5 9 3 14 -1 14 -13 0 -14 8 -17 35 -16 19 0 35 -3 35 -8 0 -5 6 -5 13 1 8
7 16 6 24 -4 11 -11 6 -14 -24 -20 l-37 -7 30 -23 c16 -13 35 -24 42 -24 7 0
10 -4 7 -10 -3 -5 3 -17 14 -27 11 -9 18 -20 15 -25 -3 -4 2 -8 10 -8 9 0 16
-5 16 -11 0 -14 29 -43 46 -45 8 -1 14 4 14 13 0 12 3 11 17 -3 13 -13 14 -19
5 -22 -6 -2 -12 -8 -12 -14 0 -5 9 -6 21 -3 15 5 19 4 15 -4 -8 -13 14 -71 28
-71 4 0 6 -6 3 -14 -3 -8 2 -16 14 -19 16 -4 18 -3 9 8 -12 15 -5 55 10 55 5
0 16 -15 25 -34 9 -19 23 -37 31 -40 21 -8 17 -36 -6 -36 -11 0 -20 -5 -20
-11 0 -7 9 -9 24 -5 19 5 26 1 36 -24 7 -16 10 -36 6 -45 -3 -8 -1 -15 4 -15
6 0 10 -5 10 -11 0 -5 -5 -7 -11 -4 -6 4 -5 -2 2 -13 7 -12 23 -26 35 -32 17
-10 21 -20 20 -51 -1 -21 2 -40 7 -42 6 -2 5 -12 -2 -24 -10 -19 -8 -22 12
-25 12 -2 20 -7 17 -13 -3 -5 -8 -9 -12 -7 -15 4 -8 -16 7 -22 25 -9 17 -26
-12 -27 -16 -1 -21 -3 -12 -6 10 -2 19 -13 22 -24 4 -16 11 -18 32 -13 25 6
26 5 14 -14 -11 -17 -11 -24 -1 -34 17 -17 15 -54 -4 -72 -17 -18 -11 -38 10
-30 7 3 16 -2 19 -10 4 -9 2 -16 -4 -16 -6 0 -8 -7 -5 -15 3 -8 9 -22 13 -32
5 -13 2 -15 -15 -11 -28 8 -46 -19 -26 -39 10 -10 10 -20 2 -45 -9 -24 -8 -33
0 -36 7 -2 12 -17 12 -33 0 -18 4 -28 10 -24 6 4 8 11 5 16 -9 14 4 29 20 22
18 -6 20 -60 3 -66 -10 -3 -10 -9 0 -26 21 -35 33 -73 22 -66 -5 3 -19 1 -31
-6 -17 -9 -19 -13 -8 -20 8 -5 22 -6 32 -3 19 6 24 -20 6 -32 -8 -4 -4 -13 12
-25 20 -15 21 -19 7 -19 -20 0 -23 -17 -8 -40 5 -9 5 -19 -2 -27 -7 -9 -7 -13
1 -13 6 0 11 -4 11 -10 0 -5 -9 -10 -20 -10 -11 0 -20 4 -20 10 0 5 -7 7 -15
4 -12 -5 -13 -10 -4 -20 6 -8 8 -14 4 -14 -4 0 -3 -6 3 -12 16 -20 19 -63 5
-60 -7 1 -13 -4 -14 -10 0 -7 -2 -20 -4 -30 -2 -12 3 -15 20 -12 12 2 28 -2
34 -10 9 -11 6 -12 -16 -8 -28 5 -28 5 -9 -16 10 -12 22 -19 26 -17 5 3 6 -3
3 -13 -2 -10 -14 -22 -26 -27 -30 -14 -34 -52 -7 -75 12 -10 17 -21 11 -24 -6
-4 -7 -15 -2 -29 6 -14 4 -32 -6 -50 -7 -15 -11 -32 -8 -37 3 -5 1 -11 -5 -15
-5 -3 -10 -1 -10 4 0 6 -4 11 -10 11 -15 0 -12 -36 4 -49 13 -11 12 -15 -5
-32 -11 -11 -24 -17 -29 -14 -14 8 -43 -22 -35 -36 5 -6 11 -4 19 6 11 16 13
16 26 0 12 -14 12 -18 -1 -26 -8 -5 -26 -9 -40 -9 -27 0 -39 -16 -39 -51 0
-10 -4 -19 -9 -19 -5 0 -12 -11 -15 -24 -3 -13 -9 -32 -12 -43 -4 -13 -3 -15
4 -4 11 16 48 7 56 -14 3 -10 0 -12 -11 -8 -12 5 -15 2 -10 -10 5 -12 -1 -19
-19 -23 -17 -4 -22 -9 -14 -14 9 -5 9 -9 1 -14 -8 -5 -8 -13 -1 -27 10 -17 7
-19 -25 -19 -39 0 -47 -14 -12 -24 20 -6 20 -7 5 -17 -10 -5 -18 -21 -18 -34
0 -14 -9 -29 -21 -35 -11 -7 -18 -14 -15 -17 3 -3 -8 -19 -24 -37 -17 -17 -30
-34 -30 -38 0 -5 -9 -8 -20 -8 -11 0 -20 -4 -20 -10 0 -5 5 -10 10 -10 6 0 10
-9 10 -20 0 -11 -5 -20 -11 -20 -17 0 -71 -59 -64 -70 3 -5 -4 -11 -15 -15
-22 -7 -27 -25 -7 -25 6 -1 -8 -13 -32 -27 -24 -15 -39 -29 -33 -31 14 -4 -17
-42 -36 -42 -7 0 -15 -7 -18 -15 -4 -8 -14 -15 -23 -16 -14 0 -14 -1 -1 -7 14
-6 14 -9 0 -22 -20 -19 -59 -24 -76 -9 -11 9 -15 7 -20 -5 -3 -9 -14 -16 -24
-16 -10 0 -20 -7 -24 -15 -3 -8 -12 -15 -21 -15 -18 0 -20 -21 -3 -38 9 -9 9
-12 -3 -13 -38 -2 -66 -11 -84 -29 -19 -20 -19 -20 13 -20 17 0 32 5 32 10 0
6 7 10 16 10 14 0 14 -2 0 -15 -8 -8 -18 -15 -23 -15 -16 -1 -53 -38 -53 -54
0 -9 -4 -16 -9 -16 -5 0 -7 9 -4 19 5 19 4 19 -31 3 -20 -10 -33 -23 -31 -29
2 -7 0 -13 -5 -13 -5 0 -7 -6 -4 -14 3 -8 0 -17 -7 -22 -7 -4 -10 -3 -6 4 4 5
4 17 1 25 -6 18 -42 29 -50 16 -3 -5 -10 -7 -15 -4 -5 3 -27 -11 -49 -31 -41
-38 -51 -58 -25 -48 8 4 15 1 15 -6 0 -8 -9 -11 -25 -8 -14 3 -25 2 -25 -2 0
-16 -75 -19 -104 -5 -44 22 -59 19 -54 -10 3 -13 2 -23 -2 -20 -3 2 -14 -5
-23 -16 -14 -15 -21 -17 -37 -9 -10 5 -21 6 -24 2 -3 -5 -19 -7 -35 -4 -22 3
-33 0 -37 -12 -7 -18 -36 -21 -65 -6 -14 8 -19 7 -19 -2 0 -10 -3 -10 -9 1 -5
8 -16 11 -27 7 -10 -4 -21 -1 -26 6 -6 9 -8 7 -4 -7 6 -20 -8 -22 -76 -16 -18
2 -6 17 13 18 12 1 27 7 33 14 8 8 -3 10 -44 5 -30 -4 -56 -11 -58 -16 -2 -6
-17 -10 -32 -10 -16 0 -32 -5 -35 -11 -12 -19 2 -21 39 -5 31 13 36 13 36 0 0
-7 -7 -14 -15 -14 -7 0 -18 -7 -22 -15 -8 -13 -12 -13 -37 0 -36 19 -36 19
-37 -7 -1 -15 -3 -17 -6 -7 -2 10 -15 16 -33 16 -16 0 -27 -5 -23 -10 3 -5 -3
-7 -13 -4 -11 3 -41 7 -68 9 -37 2 -51 -2 -61 -16 -13 -17 -14 -17 -25 4 -7
14 -15 18 -23 13 -24 -18 -107 1 -107 25 0 13 -3 13 -19 -2 -12 -11 -21 -13
-25 -7 -4 6 -16 6 -36 0 -23 -8 -34 -7 -51 4 -12 9 -28 13 -37 10 -12 -5 -14
-2 -9 11 5 13 -1 27 -18 44 -24 23 -26 24 -43 8 -20 -17 -37 -22 -27 -7 3 5 1
12 -5 16 -14 9 -13 -28 2 -43 16 -16 7 -15 -29 3 -32 16 -48 40 -38 56 4 5 -1
6 -10 3 -10 -4 -13 -13 -10 -25 6 -16 3 -18 -17 -10 -13 5 -46 10 -73 12 -46
4 -64 13 -65 32 0 4 9 7 20 7 32 0 23 17 -12 24 -21 4 -35 2 -40 -6 -5 -7 -13
-20 -18 -28 -8 -13 -11 -13 -19 -1 -5 7 -13 11 -19 7 -19 -12 -40 5 -37 30 3
27 -18 44 -46 37 -18 -5 -27 11 -11 20 9 5 -6 2 -36 -8 -17 -5 -23 -3 -21 7 4
33 -1 40 -27 34 -20 -5 -27 -3 -31 14 -3 11 -14 20 -24 20 -11 0 -19 7 -19 15
0 8 -4 15 -10 15 -5 0 -10 -6 -10 -14 0 -19 -48 -26 -65 -10 -7 8 -20 14 -29
14 -8 0 -19 7 -24 17 -6 10 -16 14 -26 10 -10 -4 -16 -1 -16 8 0 8 -9 15 -20
15 -12 0 -17 5 -14 13 4 13 -5 19 -89 58 -22 10 -28 19 -24 36 4 19 1 22 -19
17 -17 -5 -31 2 -53 24 -17 16 -33 27 -36 24 -3 -3 -5 3 -5 12 0 19 -55 76
-73 76 -6 0 -8 3 -4 6 8 8 -26 42 -37 36 -5 -3 -7 2 -3 11 4 10 2 16 -5 14 -6
-1 -13 4 -15 11 -4 9 1 13 14 10 11 -2 21 0 21 5 5 22 0 28 -20 23 -13 -3 -17
-3 -10 0 14 6 17 34 3 34 -5 0 -16 -10 -24 -23 l-16 -22 0 23 c-1 15 -7 22
-21 22 -11 0 -20 5 -20 10 0 6 12 10 27 10 27 0 27 0 6 15 -12 8 -28 12 -36 9
-15 -5 -25 11 -34 56 -2 13 -7 27 -11 30 -4 3 -14 19 -22 35 -8 17 -19 34 -25
38 -5 5 1 5 15 2 43 -11 66 -15 53 -9 -7 3 -13 12 -13 21 0 8 -11 29 -25 47
-14 18 -25 40 -25 49 0 9 -4 18 -9 22 -5 3 -8 16 -5 29 2 14 -3 29 -13 37 -11
10 -14 10 -9 2 5 -9 0 -13 -13 -13 -15 0 -21 6 -21 24 0 13 -7 29 -15 36 -9 7
-13 21 -10 30 3 9 -1 22 -9 29 -8 7 -17 23 -20 36 -4 14 -10 25 -14 25 -4 0
-7 50 -7 110 0 108 -1 110 -22 110 -16 0 -23 6 -23 19 0 10 -7 22 -16 25 -13
5 -14 9 -3 22 10 12 10 15 -1 12 -16 -3 -19 20 -9 70 4 17 3 32 -2 32 -14 0
-11 38 6 70 14 27 14 29 -7 32 -20 3 -21 4 -5 20 11 10 13 19 7 23 -6 3 -7 17
-4 31 4 16 2 24 -7 24 -11 0 -11 3 1 10 13 9 13 11 0 21 -13 9 -13 10 1 6 20
-7 49 26 49 56 -1 19 -4 17 -20 -13 -19 -34 -19 -35 -20 -8 0 15 -4 30 -10 33
-15 9 -12 35 4 35 15 0 39 32 50 67 6 18 3 22 -20 25 -20 2 -28 9 -29 25 -1
12 2 20 7 17 4 -3 9 4 9 15 2 35 4 40 14 50 6 5 19 11 30 14 19 5 19 5 -2 12
-26 8 -31 25 -8 25 16 0 37 33 34 53 -3 19 30 87 42 87 7 0 8 12 4 31 -4 17
-3 34 1 38 5 3 17 21 27 39 19 33 19 33 -2 39 -23 6 -28 19 -8 26 7 4 6 6 -4
6 -9 1 -20 8 -23 16 -7 20 33 37 51 23 10 -8 13 -2 13 26 0 24 -5 36 -14 36
-16 0 -16 29 -1 46 7 9 11 6 15 -9 7 -27 30 -34 30 -9 0 11 -3 22 -7 25 -5 2
-3 2 4 1 6 -2 17 3 23 11 8 10 7 13 -6 11 -9 0 -19 5 -22 13 -3 10 1 12 17 8
28 -7 27 13 -1 38 -15 12 -18 20 -10 23 7 2 12 12 12 23 0 10 4 19 9 19 5 0
13 10 17 23 3 12 13 30 21 39 8 9 12 21 9 27 -4 6 9 8 36 6 24 -2 38 -2 31 1
-9 4 -9 13 -2 30 8 22 6 25 -8 22 -10 -2 -17 -11 -17 -21 1 -9 -2 -17 -7 -17
-17 0 -9 35 11 53 11 9 20 23 20 32 0 11 7 13 29 9 42 -9 71 11 71 46 0 21 -5
30 -16 30 -8 0 -12 -4 -9 -10 3 -5 1 -10 -4 -10 -6 0 -11 -5 -11 -11 0 -5 5
-7 10 -4 6 3 10 2 10 -3 0 -10 -23 -22 -41 -22 -6 0 -7 6 -2 13 4 6 8 18 9 25
5 30 14 42 33 42 12 0 23 9 27 23 l8 22 6 -25 c6 -27 35 -35 35 -10 0 8 8 21
18 28 12 10 15 18 8 31 -14 25 1 41 44 51 24 5 45 22 45 35 0 8 6 15 14 15 19
0 29 30 15 46 -15 18 -3 34 24 33 18 0 19 -2 5 -7 -14 -6 -14 -10 -4 -25 11
-14 15 -15 25 -4 6 8 8 17 4 20 -3 4 -1 7 5 7 6 0 9 7 6 15 -4 10 3 18 20 25
28 10 33 29 14 48 -9 9 -3 12 27 13 30 0 35 2 20 8 -18 7 -17 9 13 25 17 9 32
21 32 26 0 18 18 10 23 -10 3 -11 11 -20 19 -20 11 0 11 2 -1 9 -10 7 -11 16
-4 37 9 27 14 29 59 29 55 0 76 9 68 29 -3 8 -1 17 5 21 7 3 11 -2 11 -15 0
-17 2 -19 14 -8 10 9 11 17 4 25 -7 9 -6 15 6 19 9 3 13 10 10 15 -3 5 2 6 11
3 12 -5 13 -10 4 -20 -19 -23 1 -38 25 -17 11 11 31 18 44 17 12 -1 20 1 18 4
-11 10 26 34 44 29 13 -3 20 0 20 9 0 13 8 16 55 18 13 1 20 9 21 24 1 12 -3
22 -7 22 -14 0 -10 17 5 23 10 4 13 -1 11 -18 -1 -14 2 -22 8 -18 5 3 28 7 50
9 22 2 45 8 52 14 9 8 15 8 20 0 3 -5 11 -10 16 -10 6 0 8 4 5 9 -4 5 12 12
34 16 22 4 40 11 40 16 0 6 4 8 8 5 12 -7 92 15 92 25 0 5 -5 8 -12 7 -6 -2
-13 6 -15 17 -1 11 0 14 3 8 8 -18 24 -16 24 2 0 8 4 15 10 15 5 0 7 -7 4 -15
-9 -23 6 -18 28 10 11 14 24 22 29 19 6 -4 5 -12 -4 -22 -8 -10 -18 -28 -21
-42 -5 -17 -4 -21 2 -12 5 8 12 13 16 12 4 -1 17 1 29 5 12 4 31 8 42 10 46 8
58 12 67 28 9 17 58 24 58 9 0 -5 -10 -14 -22 -20 -22 -10 -21 -11 11 -11 31
-1 33 1 27 24 -8 33 14 33 45 1 26 -27 45 -25 30 3 -8 14 -5 17 21 19 18 2 39
-5 49 -14 22 -20 38 -12 20 10 -10 12 -9 14 6 12 11 -2 19 -13 21 -29 2 -15
10 -27 17 -27 9 0 12 6 9 15 -4 8 -1 15 4 15 6 0 14 9 17 20 8 24 18 25 35 5z
m-740 -95 c0 -5 -4 -10 -10 -10 -5 0 -10 5 -10 10 0 6 5 10 10 10 6 0 10 -4
10 -10z m1220 -10 c0 -5 -2 -10 -4 -10 -3 0 -8 5 -11 10 -3 6 -1 10 4 10 6 0
11 -4 11 -10z m-1395 -50 c19 -21 8 -29 -12 -9 -8 8 -17 8 -31 0 -31 -17 -38
-13 -16 8 25 25 37 26 59 1z m1595 -50 c0 -5 -4 -10 -9 -10 -6 0 -13 5 -16 10
-3 6 1 10 9 10 9 0 16 -4 16 -10z m684 -465 c26 -34 26 -35 6 -35 -11 0 -24 8
-27 18 -4 9 -11 20 -16 23 -8 6 -2 29 7 29 2 0 16 -16 30 -35z m-3034 -26 c0
-6 -4 -7 -10 -4 -5 3 -10 11 -10 16 0 6 5 7 10 4 6 -3 10 -11 10 -16z m-380
-749 c0 -5 -2 -10 -4 -10 -3 0 -8 5 -11 10 -3 6 -1 10 4 10 6 0 11 -4 11 -10z
m-25 -20 c3 -5 1 -10 -4 -10 -6 0 -11 5 -11 10 0 6 2 10 4 10 3 0 8 -4 11 -10z
m-38 -158 c8 -5 4 -14 -12 -28 l-23 -21 3 26 c2 14 4 27 4 29 2 4 16 2 28 -6z
m3903 -91 c-13 -24 -30 -28 -30 -6 0 8 7 15 15 15 8 0 15 5 15 12 0 6 3 9 6 6
3 -4 1 -16 -6 -27z m-3956 -187 c3 -8 2 -12 -4 -9 -6 3 -10 10 -10 16 0 14 7
11 14 -7z m4016 -134 c0 -5 -4 -10 -10 -10 -5 0 -10 5 -10 10 0 6 5 10 10 10
6 0 10 -4 10 -10z m-3960 -449 c0 -5 -7 -11 -15 -15 -15 -5 -20 5 -8 17 9 10
23 9 23 -2z m3830 -316 c0 -13 -4 -14 -20 -5 -11 6 -20 13 -20 15 0 3 9 5 20
5 11 0 20 -7 20 -15z m-600 -835 c0 -5 -5 -10 -11 -10 -5 0 -7 5 -4 10 3 6 8
10 11 10 2 0 4 -4 4 -10z m-2243 -146 c-3 -3 -12 -4 -19 -1 -8 3 -5 6 6 6 11
1 17 -2 13 -5z m1983 -35 c0 -19 -2 -20 -16 -8 -14 11 -18 10 -30 -6 -9 -12
-14 -14 -14 -6 0 16 29 40 48 41 6 0 12 -10 12 -21z m-250 -99 c-14 -8 -50 -2
-50 9 0 4 14 5 31 3 19 -3 26 -7 19 -12z"/>
<path d="M3260 4967 c0 -9 9 -18 19 -22 61 -19 83 -11 33 13 -48 24 -52 24
-52 9z"/>
<path d="M3525 4910 c3 -5 11 -10 16 -10 6 0 7 5 4 10 -3 6 -11 10 -16 10 -6
0 -7 -4 -4 -10z"/>
<path d="M3755 4830 c-3 -5 -1 -10 4 -10 6 0 11 5 11 10 0 6 -2 10 -4 10 -3 0
-8 -4 -11 -10z"/>
<path d="M1900 4640 c-9 -6 -10 -10 -3 -10 6 0 15 5 18 10 8 12 4 12 -15 0z"/>
<path d="M4198 4583 c7 -3 16 -2 19 1 4 3 -2 6 -13 5 -11 0 -14 -3 -6 -6z"/>
<path d="M1370 4119 c0 -5 5 -7 10 -4 6 3 10 8 10 11 0 2 -4 4 -10 4 -5 0 -10
-5 -10 -11z"/>
<path d="M4715 4059 c-4 -6 -5 -12 -2 -15 2 -3 7 2 10 11 7 17 1 20 -8 4z"/>
<path d="M4730 4005 c0 -8 27 -35 34 -35 14 0 4 20 -14 30 -11 6 -20 8 -20 5z"/>
<path d="M1255 3901 c-3 -5 -1 -12 5 -16 5 -3 10 1 10 9 0 18 -6 21 -15 7z"/>
<path d="M4818 3783 c7 -3 16 -2 19 1 4 3 -2 6 -13 5 -11 0 -14 -3 -6 -6z"/>
<path d="M4905 3450 c3 -5 8 -10 11 -10 2 0 4 5 4 10 0 6 -5 10 -11 10 -5 0
-7 -4 -4 -10z"/>
<path d="M1040 3225 c-10 -12 -10 -15 4 -15 9 0 16 7 16 15 0 8 -2 15 -4 15
-2 0 -9 -7 -16 -15z"/>
<path d="M4956 3033 c-6 -14 -5 -15 5 -6 7 7 10 15 7 18 -3 3 -9 -2 -12 -12z"/>
<path d="M1035 2831 c-3 -5 -2 -12 3 -15 5 -3 9 1 9 9 0 17 -3 19 -12 6z"/>
<path d="M1010 2710 c0 -5 5 -10 11 -10 5 0 7 5 4 10 -3 6 -8 10 -11 10 -2 0
-4 -4 -4 -10z"/>
<path d="M4955 2690 c4 -6 11 -8 16 -5 14 9 11 15 -7 15 -8 0 -12 -5 -9 -10z"/>
<path d="M1040 2600 c13 -24 35 -27 26 -4 -3 9 -6 18 -6 20 0 2 -7 4 -15 4
-13 0 -14 -4 -5 -20z"/>
<path d="M4930 2526 c0 -2 7 -9 15 -16 12 -10 15 -10 15 4 0 9 -7 16 -15 16
-8 0 -15 -2 -15 -4z"/>
<path d="M1092 2450 c0 -14 2 -19 5 -12 2 6 2 18 0 25 -3 6 -5 1 -5 -13z"/>
<path d="M1096 2382 c-2 -4 -1 -14 3 -21 6 -9 10 -7 14 8 5 20 -7 29 -17 13z"/>
<path d="M1115 2300 c-3 -5 1 -10 9 -10 9 0 16 5 16 10 0 6 -4 10 -9 10 -6 0
-13 -4 -16 -10z"/>
<path d="M1135 2280 c-3 -5 3 -10 15 -10 12 0 18 5 15 10 -3 6 -10 10 -15 10
-5 0 -12 -4 -15 -10z"/>
<path d="M1153 2233 c9 -2 17 -11 17 -19 0 -8 5 -14 10 -14 7 0 7 6 0 20 -6
11 -18 19 -28 19 -16 -1 -16 -2 1 -6z"/>
<path d="M4756 2071 c-4 -7 -5 -15 -2 -18 9 -9 19 4 14 18 -4 11 -6 11 -12 0z"/>
<path d="M1290 1900 c0 -5 5 -10 11 -10 5 0 7 5 4 10 -3 6 -8 10 -11 10 -2 0
-4 -4 -4 -10z"/>
<path d="M1318 1883 c-10 -3 -18 -9 -18 -14 0 -12 37 -12 45 0 7 12 -5 19 -27
14z"/>
<path d="M4520 1690 c0 -5 7 -10 15 -10 8 0 15 5 15 10 0 6 -7 10 -15 10 -8 0
-15 -4 -15 -10z"/>
<path d="M1763 1398 c2 -7 13 -13 25 -12 12 0 19 -3 16 -8 -6 -10 20 -38 35
-38 17 0 13 9 -16 41 -28 29 -69 40 -60 17z"/>
<path d="M1843 1323 c9 -2 23 -2 30 0 6 3 -1 5 -18 5 -16 0 -22 -2 -12 -5z"/>
<path d="M2238 1173 c7 -3 16 -2 19 1 4 3 -2 6 -13 5 -11 0 -14 -3 -6 -6z"/>
<path d="M3826 1171 c-4 -7 -5 -15 -2 -18 9 -9 19 4 14 18 -4 11 -6 11 -12 0z"/>
<path d="M3545 1110 c3 -5 8 -10 11 -10 2 0 4 5 4 10 0 6 -5 10 -11 10 -5 0
-7 -4 -4 -10z"/>
<path d="M2674 1089 c-8 -13 13 -29 40 -29 18 0 18 1 1 20 -21 23 -31 25 -41
9z"/>
<path d="M3097 1039 c-25 -15 -21 -27 8 -21 25 4 32 16 17 26 -4 2 -15 0 -25
-5z"/>
<path d="M3040 1030 c0 -5 5 -10 10 -10 6 0 10 5 10 10 0 6 -4 10 -10 10 -5 0
-10 -4 -10 -10z"/>
</g>
</svg>
